<svg xmlns="http://www.w3.org/2000/svg" viewBox="0 0 3901.02 991.69">
  <defs>
    <style>
      .cls-1{fill:#2e8b3a}.cls-2{fill:#1d1d1b}
    </style>
  </defs>
  <g id="Calque_2" data-name="Calque 2">
    <g id="Calque_1-2" data-name="Calque 1">
      <g id="hetic_-_big_-_noir" data-name="hetic - big - noir">
        <path d="M443.63 83.45a56.9 56.9 0 1 1-56.9 56.9 57 57 0 0 1 56.9-56.9m0-47.63a104.53 104.53 0 1 0 104.53 104.53A104.55 104.55 0 0 0 443.63 35.82M743 267.17a56.89 56.89 0 1 1-56.9 56.9 57 57 0 0 1 56.9-56.9m0-47.63a104.54 104.54 0 1 0 104.56 104.53A104.54 104.54 0 0 0 743 219.54M675.09 710.89a56.9 56.9 0 1 1-56.9 56.9 57 57 0 0 1 56.9-56.9m0-47.63a104.54 104.54 0 1 0 104.54 104.53 104.54 104.54 0 0 0-104.54-104.53M253.3 762.71a56.89 56.89 0 1 1-56.9 56.89 57 57 0 0 1 56.9-56.89m0-47.63A104.52 104.52 0 1 0 357.84 819.6 104.54 104.54 0 0 0 253.3 715.07M104.54 379a56.89 56.89 0 1 1-56.9 56.9 57 57 0 0 1 56.9-56.9m0-47.63a104.54 104.54 0 1 0 104.52 104.52 104.55 104.55 0 0 0-104.52-104.52" class="cls-1"/>
        <path d="M104.54 343.28a93.18 93.18 0 0 1 15.74 1.45v-175.1H355.8a92.55 92.55 0 0 1-3-47.63H72.66v227a91.74 91.74 0 0 1 31.88-5.75M534.42 122a94.35 94.35 0 0 1 1.82 18.35 92.67 92.67 0 0 1-4.78 29.28h363.26v774.43H120.28v-417a87.35 87.35 0 0 1-15.74 1.43 92.12 92.12 0 0 1-31.89-5.76v468.96h869.7V122z" class="cls-1"/>
        <path d="M445.78 397.52a92.64 92.64 0 1 1-92.63 92.63 92.75 92.75 0 0 1 92.63-92.63m0-47.63A140.26 140.26 0 1 0 586 490.15a140.25 140.25 0 0 0-140.22-140.26" class="cls-1"/>
        <path d="M422.16 227.33h47.63v149.79h-47.63zM205.78 415.4h122.64v47.63H205.78zM700.13 692.93h-47.62V580.7H540.24v-47.65h159.89v159.88zM557.24 404.33h-47.63V298.86h159.9v47.63H557.24v57.84zM272.61 747.37h-47.62V533.05h119.07v47.63h-71.45v166.69z" class="cls-1"/>
        <path d="M1552.09 163.79h102.61v459.79h-102.61V442.69h-182.86v180.89h-102.62V163.79h102.61v192.07h182.86zM2270.38 163.79v91.43h-228.9v94.72h205.89v87.49h-205.89v95.37h236.14v90.77h-338.76V163.79zm-128.27-47.36h-94.06L2131.59 0l102 42.76zM2734.78 252.59v371h-102.61v-371h-130.24v-88.8H2865v88.8zM3111 163.79h102.61v459.79H3111zM3708.95 532.8q75.64 0 123.66-59.86l65.78 67.75q-78.29 88.15-184.51 88.14t-175-67.09q-68.74-67.09-68.74-169.38t70.05-170.69q70.05-68.4 171.35-68.41 113.13 0 189.44 86.17l-63.8 72.36q-48.69-60.51-121-60.52-57.89 0-99 37.82t-41.11 102q0 64.13 38.81 102.94t94.07 38.77z" class="cls-2"/>
        <g id="lagrandeecoleelinternet">
          <path d="M1263.33 928v-89.46h15.1v75.14h40.83V928zM1362.14 907.66l-9 20.35h-16.13l39.42-89.47h16.13L1432 928h-16.1l-9-20.35zm38.66-14l-16.26-36.86-16.26 36.86zM1568.86 884.49H1584v30.59q-12.67 14-36.22 14-19.84 0-33.22-13.06t-13.38-33q0-20 13.63-33.28a45.45 45.45 0 0 1 33-13.31q19.33 0 32.13 11.26l-8.06 11.52a31.46 31.46 0 0 0-10.56-6.21 40 40 0 0 0-12.35-1.73q-13.57 0-22.78 8.77t-9.22 23q0 14.27 9 22.91a30.11 30.11 0 0 0 21.7 8.64q12.73 0 21.31-5.5zM1688.92 867.59q0 22.15-19.33 27.9L1693 928h-19.2l-21.38-30.08h-19.82V928h-15.1v-89.46h33.28q20.48 0 29.31 6.91t8.83 22.14zm-20.1 12.67q4.61-4 4.61-12.74t-4.74-12q-4.74-3.27-16.9-3.26h-19.2v32h18.82q12.8-.03 17.41-3.99zM1737 907.66l-9 20.35h-16l39.42-89.47h16.13l39.39 89.46h-16.13l-9-20.35zm38.66-14l-16.26-36.86-16.26 36.86zM1900.12 838.54h15.1V928h-16.38l-50.69-65.28V928H1833v-89.46h15.1l52 66.82zM2021.46 850.25q12.93 11.71 12.93 32.58t-12.54 33Q2009.3 928 1983.45 928h-29.7v-89.46h30.72q24.06 0 36.99 11.71zm-2.3 33q0-30.72-35.2-30.72h-15.1v61.27h16.77q16.25 0 24.9-7.74t8.63-22.85zM2130.39 838.54v14.21h-47.74v23.68h42.88v13.44h-42.88v23.93h49.28V928h-64.38v-89.46zM2276.56 838.54v14.21h-47.74v23.68h42.88v13.44h-42.88v23.93h49.28V928h-64.38v-89.46zm-24.56-7.43h-13.06l13.57-18.56 15.1 6.27zM2352 914.31a31.6 31.6 0 0 0 13.44-2.62 46.26 46.26 0 0 0 11.78-8.38l9.73 10Q2372.69 929 2352.4 929t-33.66-13q-13.38-13.06-13.38-33t13.64-33.33q13.63-13.31 34.43-13.31a45 45 0 0 1 34.75 15.36l-9.6 10.5a42 42 0 0 0-12.1-8.58 33.9 33.9 0 0 0-13.38-2.43q-13.57 0-22.78 8.77t-9.22 22.4q0 13.63 9.15 22.78a29.64 29.64 0 0 0 21.75 9.15zM2492 915.66q-13.57 13.25-33.54 13.25t-33.54-13.25q-13.57-13.25-13.57-33t13.57-33q13.57-13.25 33.54-13.25t33.54 13.2q13.57 13.25 13.57 33T2492 915.66zm-11.07-56a31.37 31.37 0 0 0-44.93 0 33.41 33.41 0 0 0 0 46 31.37 31.37 0 0 0 44.93 0 33.41 33.41 0 0 0 0-46zM2538.32 928v-89.46h15.1v75.14h40.83V928zM2687.31 838.54v14.21h-47.74v23.68h42.88v13.44h-42.88v23.93h49.28V928h-64.38v-89.46zM2838.35 850.25q12.93 11.71 12.93 32.58t-12.54 33Q2826.19 928 2800.33 928h-29.7v-89.46h30.72q24.07 0 37 11.71zm-2.3 33q0-30.72-35.2-30.72h-15.1v61.27h16.77q16.25 0 24.9-7.74t8.58-22.85zM2947.28 838.54v14.21h-47.74v23.68h42.88v13.44h-42.88v23.93h49.28V928h-64.38v-89.46zM3030.6 928v-89.46h15.1v75.14h40.83V928zM3102.54 853a6.64 6.64 0 0 1-3.46-6.08 8.34 8.34 0 0 1 2.3-6.27 7.94 7.94 0 0 1 5.76-2.24 8.29 8.29 0 0 1 5.82 2.18 7.38 7.38 0 0 1 2.37 5.7 11.88 11.88 0 0 1-2.3 6.85l-7.55 10.86h-7.81zM3147.08 838.54h15.1V928h-15.1zM3267.79 838.54h15.1V928h-16.38l-50.69-65.28V928h-15.1v-89.46h15.1l52 66.82zM3355.21 852.36V928h-15.1v-75.64H3313v-13.82h69.38v13.82zM3475.27 838.54v14.21h-47.74v23.68h42.88v13.44h-42.88v23.93h49.28V928h-64.38v-89.46zM3581.26 867.59q0 22.15-19.33 27.9l23.42 32.51h-19.2l-21.38-30.08h-19.84V928h-15.1v-89.46h33.28q20.48 0 29.31 6.91t8.84 22.14zm-20.1 12.67q4.61-4 4.61-12.74t-4.74-12q-4.74-3.27-16.9-3.26h-19.2v32h18.82q12.8-.03 17.41-3.99zM3683.78 838.54h15.1V928h-16.38l-50.69-65.28V928h-15.1v-89.46h15.1l52 66.82zM3800.26 838.54v14.21h-47.74v23.68h42.88v13.44h-42.88v23.93h49.28V928h-64.38v-89.46zM3868.61 852.36V928h-15.1v-75.64h-27.14v-13.82h69.38v13.82z" class="cls-2"/>
        </g>
      </g>
    </g>
  </g>
</svg>