<svg xmlns="http://www.w3.org/2000/svg" viewBox="0 0 488.18 366.2"><defs><style>.cls-1{fill:#fefefe;}.cls-2{fill:#c4cbf1;}</style></defs><title>Fichier 1</title><g id="Calque_2" data-name="Calque 2"><g id="Calque_1-2" data-name="Calque 1"><path class="cls-1" d="M366.08.12q59.21,0,118.4-.06c2.68,0,3.71.17,3.7,3.45q-.18,179.59,0,359.19c0,3.18-.89,3.5-3.67,3.49-26.48-.11-52.95-.07-79.43-.07-.47-3.08,2.16-4.31,3.81-6q35.63-35.79,71.38-71.46c4.58-4.59,4.54-4.57,0-9.2C456.8,255.6,433.6,231.45,409.73,208c-4.43-4.35-4.39-5.29.06-9.75q35.67-35.75,71.4-71.43c4.66-4.66,4.61-4.64.14-9.21-23.66-24.16-47.13-48.52-71.25-72.23-4.49-4.41-4.51-4.46-9,0q-34.5,34.46-69,68.91c-1.67,1.66-3.27,4.81-5.95,3.54-2.2-1-1.29-4.23-1.29-6.5-.05-21.34.05-42.67-.1-64a13.26,13.26,0,0,1,4.42-10.59C339.65,26.89,349,16,360.1,6.82A46.48,46.48,0,0,0,366.08.12Z"/><path class="cls-1" d="M.08,282.12Q.08,143.29,0,4.46C0,1.13.35,0,4.23,0,44.51.2,84.8.12,125.08.12A259,259,0,0,0,154.3,30.85c6.88,6.26,9.56,12.93,9.22,22.23-.7,19-.21,38-.21,57,0,1.5.06,3-.06,4.5-.11,1.3,0,2.87-1.42,3.48s-2.49-.6-3.45-1.47c-2.73-2.47-4.67-5.63-7.28-8.23q-31.35-31.2-62.58-62.52c-4.92-4.92-5-4.92-9.67-.2Q43.14,81.28,7.45,117c-4.61,4.62-4.5,4.55,0,9.33,22.67,24,46.18,47.09,69.47,70.45,4.93,4.95,4.91,5.78-.18,10.88q-35.5,35.55-71.07,71C4.15,280.22,3,282.62.08,282.12Z"/><path class="cls-2" d="M.08,282.12c1.13-1,2.34-1.86,3.39-2.91,24.52-24.49,49-49.07,73.62-73.45,3.11-3.08,2.62-4.64-.21-7.43Q51.28,173,26,147.41C18.61,140,11.5,132.25,4.13,124.8c-2.24-2.27-2.41-3.88-.07-6.21q38.27-38.1,76.36-76.37C83,39.65,84.62,40,87,42.4Q120.45,76.11,154,109.68c2.52,2.52,4.08,6,7.58,7.74,1-1.73.49-3.4.49-5,0-22-.06-44,.11-66a12.11,12.11,0,0,0-3.88-9.65C147.5,26.19,136.7,15.56,126.62,4.22c-1-1.16-2.92-2-1.54-4.1h1c1,.85,2.35,1.22,3.32,2.18C141.13,13.86,152.78,25.48,163.58,38c4.94-6.56,11.71-11.23,17.45-17,5.55-5.52,11.09-11,16.58-16.6A22.81,22.81,0,0,1,203.08.12h2c2.14,4.34-1.7,6.16-3.93,8.07C190.87,17,182,27.2,172.06,36.33c-4.3,4-5.88,8.25-5.81,14.05.27,21.57.15,43.16.09,65.14,8.74-8.71,17.19-17.19,25.67-25.65q23.33-23.33,46.66-46.65c5.25-5.23,6.57-5.23,11.85,0,15.34,15.3,30.92,30.37,45.85,46.05,8.13,8.54,16.36,16.94,24.69,25.52,1.23-1.9.7-3.59.7-5.17,0-20.83,0-41.66.09-62.49A13.14,13.14,0,0,0,317.7,37C307.54,26.89,297,17.11,287.83,6.11c-1.35-1.61-4.72-3-1.75-6h1c1,.85,2.35,1.22,3.32,2.18C302.13,13.86,313.79,25.48,324.58,38c4.94-6.55,11.71-11.23,17.45-17,5.55-5.52,11.09-11,16.58-16.6A22.81,22.81,0,0,1,364.08.12h2c-.09,4.74-4.17,6.67-7,9.16-11,9.7-20.81,20.61-31.41,30.71a5.64,5.64,0,0,0-1.62,4.51q0,35.72,0,71.45a6.8,6.8,0,0,0,.33,1.42c2.09-.43,3-2.15,4.24-3.38,23.58-23.52,47.2-47,70.61-70.72,3.47-3.52,5.45-3.23,8.74.13,15.49,15.83,31.49,31.18,46.77,47.21q13.6,14.28,27.6,28.15c2.73,2.71,2.5,4.14-.1,6.72-24.7,24.52-49.22,49.23-74,73.71-3.13,3.11-3.17,4.72,0,7.81,13.59,13.25,26.95,26.75,40.29,40.26,11,11.12,21.73,22.5,32.82,33.54,2.77,2.76,2.37,4.18-.17,6.71Q445.85,324.65,408.67,362c-1.28,1.28-2.4,2.73-3.59,4.1h-1c-3.07-.46-5.37-2.11-7.53-4.3-9.81-9.95-19.82-19.71-29.57-29.73-2.81-2.89-4.55-2.94-7.71-.19-10.68,9.32-20.24,19.75-30.37,29.6a24.69,24.69,0,0,1-5.82,4.62h-1a15.29,15.29,0,0,1-6.53-4.32c-9.51-10-19.93-19.16-28.84-29.78-3.71-4.43-4.07-4.28-8.13-.23q-15,15-30,30a22.85,22.85,0,0,1-5.47,4.28h-1a15.93,15.93,0,0,1-6.53-4.31c-10-10.05-20-20-29.94-30.08-2.52-2.57-4.12-2.65-7-.18-10.82,9.41-20.51,20-30.75,29.95a24.49,24.49,0,0,1-5.82,4.62h-1a15.29,15.29,0,0,1-6.53-4.32c-9.51-10-19.93-19.16-28.84-29.78-3.71-4.43-4.07-4.28-8.13-.23q-15,15-30,30a22.85,22.85,0,0,1-5.47,4.28h-1a16,16,0,0,1-6.51-4.29C56.42,343.6,37.93,325.69,20.16,307.1,13.32,300,5.79,293.34.08,285.12Z"/><path class="cls-1" d="M286.08.12c-1.38,2.08.51,2.94,1.54,4.1,10.19,11.46,21.14,22.17,32.05,32.93a10.6,10.6,0,0,1,3.54,8.28c-.14,22.66-.07,45.32-.07,68v5.15c-8-8-15.48-14.82-22.18-22.33-7.43-8.35-15.51-16-23.31-24C268,62.36,258,52.75,248.41,42.8c-2.92-3-4.75-2.89-7.66,0q-35.38,35.68-71,71.09c-1.24,1.24-2.19,2.92-4.16,3.44-1-1.42-.46-2.93-.46-4.34,0-22.17,0-44.33-.1-66.5a10.38,10.38,0,0,1,3.38-8.32c11.27-10.86,22-22.33,33.7-32.69,1.59-1.41,3.42-2.81,3-5.4Z"/><path class="cls-1" d="M.08,285.12C7.2,291.37,13.38,298.54,20,305.3c18.7,19.15,37.73,38,56.65,56.9,1.4,1.39,3,2.62,4.44,3.92-25.92,0-51.84-.05-77.76.08-2.77,0-3.33-.55-3.32-3.32C.13,337,.08,311,.08,285.12Z"/><path class="cls-1" d="M323.08,366.12c10.4-11.19,21.14-22,32.48-32.29.36-.33.77-.63,1.15-.95,6.74-5.88,6.74-5.89,13,.33q13.92,13.94,27.83,27.9a21.16,21.16,0,0,0,6.58,5Z"/><path class="cls-1" d="M162.08,366.12c10.41-11.2,21.15-22.06,32.5-32.31.25-.22.53-.4.78-.62,7.23-6.06,7.18-6,14.06.74,10.92,10.7,21.25,22,32.66,32.19Z"/><path class="cls-1" d="M82.08,366.12c12-13.26,25.24-25.39,37.68-38.27,2.14-2.22,3.16-.44,4.3.85,10,11.29,20.9,21.75,31.54,32.45,1.74,1.74,3.65,3.32,5.48,5Z"/><path class="cls-1" d="M243.08,366.12c12-13.26,25.24-25.39,37.68-38.27,2.14-2.22,3.16-.44,4.3.85,10,11.29,20.9,21.75,31.54,32.45,1.74,1.74,3.65,3.32,5.48,5Z"/><path class="cls-1" d="M203.08.12c-8.76,9.54-17.87,18.71-27.51,27.36-3.34,3-6.51,6.18-9.65,9.37-1.47,1.49-2.48,2.27-4.36.28-11.76-12.4-23.64-24.68-35.48-37Z"/><path class="cls-1" d="M364.08.12c-8.76,9.54-17.87,18.71-27.51,27.36-3.34,3-6.51,6.18-9.65,9.37-1.47,1.49-2.48,2.27-4.36.28-11.76-12.4-23.64-24.68-35.48-37Z"/><path class="cls-1" d="M324.08,280.76c0-24.95,0-49.24,0-73.53,0-2.27,1-3.69,2.52-5.13,11.89-11.62,23.33-23.7,35.69-34.84,2.29-2.07,3.52-2.07,5.63.08q16.28,16.56,32.8,32.86c1.73,1.71,2.17,2.75.19,4.73Q363.34,242.24,326,279.69A11.33,11.33,0,0,1,324.08,280.76Z"/><path class="cls-1" d="M245.08,198.49c0-24.56,0-48.7,0-72.84a6.81,6.81,0,0,1,2.22-5.27C259,108.86,270.4,96.93,282.65,85.9c2-1.79,3.12-1.66,4.89.13,11,11.13,22,22.24,33.21,33.19,2.24,2.2,1.52,3.29-.3,5.09q-19.69,19.51-39.23,39.18-15.9,15.88-31.81,31.77C248.28,196.38,247.42,197.91,245.08,198.49Z"/><path class="cls-1" d="M406.08,199.66v-5.25c0-22.48,0-45,0-67.43,0-2.82.53-5,2.68-7.1,11.59-11.22,22.68-22.95,34.69-33.76,2.08-1.88,3.27-2,5.26,0q16.49,16.73,33.18,33.23c1.57,1.56,2,2.54.2,4.37C457,148.63,432.11,173.61,406.08,199.66Z"/><path class="cls-1" d="M405.61,360.4c-1-1.3-.5-2.66-.5-3.9,0-22.48,0-45-.09-67.44a9.38,9.38,0,0,1,3-7.47c11.48-11.1,22.44-22.73,34.34-33.4,2-1.81,3.2-2.21,5.26-.11q16.47,16.74,33.17,33.23c1.49,1.49,2.25,2.46.33,4.37q-37.19,37-74.25,74.09A4.57,4.57,0,0,1,405.61,360.4Z"/><path class="cls-1" d="M243.08,360.49c0-24.7,0-49-.05-73.31,0-2.53,1.39-3.94,2.94-5.46,11.39-11.2,22.42-22.76,34.29-33.47,2.29-2.07,3.52-2,5.63.1,10.85,11,21.83,22,32.8,32.89,1.39,1.39,2.52,2.34.5,4.35Q281.81,322.75,244.57,360C244.38,360.22,244,360.22,243.08,360.49Z"/><path class="cls-1" d="M82.08,360.49c0-24.7,0-49,0-73.31,0-2.53,1.39-3.94,2.94-5.46,11.39-11.2,22.42-22.76,34.29-33.47,2.29-2.07,3.52-2,5.63.1,10.85,11,21.83,22,32.8,32.89,1.39,1.39,2.52,2.34.5,4.35Q120.81,322.75,83.57,360C83.37,360.22,83,360.22,82.08,360.49Z"/><path class="cls-1" d="M402.14,362.53c-7.71-7.69-14.85-14.16-21.2-21.32-8-9-16.7-17.18-25.06-25.74Q342.1,301.34,328,287.57c-2.22-2.16-2.64-3.41-.16-5.82Q345,265,361.7,247.83c2.46-2.52,3.8-2.08,5.81.24,10.16,11.7,21.44,22.31,32.33,33.3a6.94,6.94,0,0,1,2.33,5.25C402.12,311.42,402.14,336.23,402.14,362.53Z"/><path class="cls-1" d="M84.08,198.41c0-24.57,0-48.86,0-73.16a6.23,6.23,0,0,1,2.15-4.79C98,108.93,109.31,97,121.57,86c1.9-1.71,3-1.91,4.9,0q16.65,16.89,33.5,33.6c1.4,1.39,1.92,2.34.24,4q-37.56,37.29-75,74.68C85.1,198.33,84.89,198.3,84.08,198.41Z"/><path class="cls-1" d="M163.08,279.91v-17c0-18,.06-36-.06-54a9.34,9.34,0,0,1,3.07-7.44c11.74-11.32,22.95-23.18,35-34.16,2.59-2.34,3.86-1.92,6,.26q15.59,15.87,31.4,31.51c1.81,1.8,3.12,3.06.57,5.59q-37.24,37-74.29,74.13A14.35,14.35,0,0,1,163.08,279.91Z"/><path class="cls-1" d="M402.59,199c-7.48-7.48-14.94-14.28-21.63-21.79-8-9-16.69-17.16-25-25.73-8.6-8.82-17.28-17.57-26.16-26.09-2.79-2.68-2.5-4.16.11-6.71,11.08-10.8,22-21.78,32.85-32.81,2-2,3.21-2.79,5.44-.22,10.36,11.95,21.87,22.8,33,34a6.44,6.44,0,0,1,2,4.87q-.06,36.19,0,72.4A12.53,12.53,0,0,1,402.59,199Z"/><path class="cls-1" d="M159.86,280.21c-7.69-7.65-15.08-14.35-21.69-21.75-9.34-10.43-19.54-20-29.28-30Q98.09,217.37,87,206.58c-2.2-2.13-2.69-3.38-.19-5.82,11.45-11.16,22.71-22.5,33.93-33.89,2-2,3.24-2.73,5.45-.19,10.26,11.82,21.65,22.56,32.63,33.7a4.29,4.29,0,0,1,1.64,3.35c-.18,24.64-.22,49.28-.3,73.91C160.13,278.14,160,278.63,159.86,280.21Z"/><path class="cls-1" d="M321.14,280.46c-8-7.93-15.38-14.63-22-22-9.12-10.18-19.06-19.52-28.58-29.29q-11.32-11.61-23-22.94c-2-1.91-2.2-3-.1-5.09Q264.95,184,282.1,166.5c2.15-2.19,3.33-1.75,5.08.24,10.31,11.78,21.67,22.54,32.65,33.67a4.3,4.3,0,0,1,1.59,3.38c-.18,24.3-.21,48.6-.28,72.9Z"/><path class="cls-1" d="M79.13,361.69C70,352.25,61.82,344,53.77,335.59c-15.54-16.22-31.56-32-47.57-47.74-2.93-2.88-3.12-4.47-.07-7.42,11-10.64,21.79-21.52,32.49-32.46,2.26-2.31,3.6-2.56,5.8,0,10.24,11.83,21.66,22.53,32.64,33.66a5.9,5.9,0,0,1,2.09,4.32C79.12,310.69,79.13,335.44,79.13,361.69Z"/><path class="cls-1" d="M240.13,359.43c-7.36-6.82-14.91-13.57-22.17-20.62s-14-14.24-21-21.32c-10-10-19.91-20.1-30-30-2.57-2.5-3-4-.17-6.71C177.83,270,188.74,259,199.58,248c2.2-2.24,3.55-2.69,5.8-.08C215.62,259.75,227,270.45,238,281.58a5.86,5.86,0,0,1,2.14,4.3C240.12,310.65,240.13,335.41,240.13,359.43Z"/><path class="cls-1" d="M80.4,198.92c-8.61-8.79-16.84-17.22-25-25.73-15.56-16.2-31.59-32-47.58-47.74-2.67-2.63-2.71-4.08,0-6.71q16.63-16.18,32.84-32.83c2.33-2.38,3.67-2.39,5.81.08C56.7,97.81,68.1,108.53,79.1,119.64a6.43,6.43,0,0,1,2.06,4.84q-.06,36.45-.06,72.9C81.1,197.66,80.86,197.94,80.4,198.92Z"/><path class="cls-1" d="M241.5,198.94c-2.72-3-4.93-5.7-7.37-8.15q-32.26-32.41-64.68-64.71c-3-2.94-3.58-4.57-.2-7.8,11.07-10.6,21.83-21.54,32.56-32.49,2.14-2.18,3.37-2.39,5.45,0,10.27,11.84,21.66,22.59,32.7,33.69a7,7,0,0,1,2.21,5.3q-.09,36.25-.06,72.5A8.49,8.49,0,0,1,241.5,198.94Z"/><path class="cls-1" d="M362.52,162.32c0,1.25-.93,1.77-1.59,2.44-11.64,11.62-23.2,23.33-35.33,34.46-1.63,1.49-2.53,1.46-4-.08q-16.79-17.41-33.71-34.67c-1.72-1.74-1-2.65.31-4q17.32-17.25,34.58-34.57c1.31-1.31,2.43-2.19,4.12-.44q17.34,17.9,34.76,35.73A10.62,10.62,0,0,1,362.52,162.32Z"/><path class="cls-1" d="M199.83,324.73c-.82.87-1.47,1.61-2.17,2.3-11.53,11.51-23,23.08-35,34.12-1.93,1.78-2.92,1.31-4.37-.3-10.67-11.87-22-23.08-33.36-34.31-1.62-1.61-1.35-2.55.12-4q17.36-17.24,34.57-34.6c1.9-1.92,3.13-1.68,4.87.13q16.78,17.4,33.7,34.69C198.77,323.33,199.23,324,199.83,324.73Z"/><path class="cls-1" d="M323.05,286.08a28.54,28.54,0,0,1,2.36,1.95c11.26,11.54,22.47,23.13,33.78,34.61,1.56,1.59,1.44,2.51-.07,4-11.82,11.69-23.48,23.53-35.74,34.77-1.49,1.37-2.38,1.25-3.63-.14-10.87-12.14-22.54-23.51-34.07-35-1.58-1.58-.85-2.45.34-3.63q17.49-17.43,35-34.91A23.4,23.4,0,0,1,323.05,286.08Z"/><path class="cls-1" d="M80.45,281.83c-.87-.83-1.63-1.46-2.29-2.19-10.57-11.74-21.83-22.81-33-33.92-1.82-1.8-1.43-2.78.16-4.36q17.2-17,34.21-34.23c2.07-2.11,3.34-1.84,5.23.13q16.59,17.24,33.37,34.3c1.44,1.46,1.78,2.39.12,4-12,11.53-23.85,23.14-35.77,34.71A24.32,24.32,0,0,1,80.45,281.83Z"/><path class="cls-1" d="M243.1,205.09c1,.89,2,1.57,2.75,2.38,11,11.3,22,22.65,33.07,33.9,1.59,1.62,1.95,2.6.12,4.36q-17.79,17.1-35.38,34.41c-1.88,1.86-2.86,1.25-4.36-.3Q222.7,262.62,206,245.51c-1.24-1.26-1.73-2.13-.22-3.63,11.81-11.71,23.55-23.5,35.32-35.25A19.66,19.66,0,0,1,243.1,205.09Z"/><path class="cls-1" d="M403.61,281.82a20.26,20.26,0,0,1-1.95-1.68c-10.81-12-22.31-23.28-33.74-34.64-1.67-1.66-1.22-2.59.2-4q17.34-17.24,34.56-34.59c1.95-2,3.18-1.56,4.88.2q16.79,17.38,33.74,34.64c1.7,1.73,1.08,2.65-.3,4q-17.75,17.16-35.41,34.38C405,280.69,404.35,281.19,403.61,281.82Z"/><path class="cls-1" d="M443.79,81.58a23,23,0,0,1-1.6,1.91c-11.9,11.6-23.84,23.15-35.69,34.8-1.68,1.65-2.66,1.23-4-.26-10.77-12-22.29-23.29-33.71-34.66-1.46-1.46-1.18-2.33.12-3.63q17.52-17.41,34.92-34.93c1.73-1.74,2.89-1.57,4.5.09q17,17.55,34.05,35C442.85,80.39,443.24,80.93,443.79,81.58Z"/><path class="cls-1" d="M245.12,43.1a25.78,25.78,0,0,1,2.08,1.72q17.06,17.49,34.11,35c1.35,1.37,1.44,2.25,0,3.63q-18.1,17.49-36.09,35.1c-1.6,1.58-2.5.84-3.62-.39-10.79-12-22.3-23.27-33.71-34.66-1.32-1.32-1.54-2.2-.1-3.63q17.72-17.57,35.32-35.24A17.5,17.5,0,0,1,245.12,43.1Z"/><path class="cls-1" d="M201.82,162.71c-.8.87-1.45,1.61-2.15,2.31-11.53,11.51-23,23.08-35,34.13-1.93,1.78-2.91,1.32-4.36-.3C149.65,187,138.28,175.77,127,164.53c-1.63-1.61-1.33-2.55.13-4q17.36-17.24,34.58-34.6c1.62-1.64,2.57-1.3,4,.15q17.2,17.38,34.51,34.67C200.75,161.31,201.22,162,201.82,162.71Z"/><path class="cls-1" d="M83.71,43.34c.86.79,1.6,1.44,2.3,2.13,11.28,11.3,22.51,22.67,33.89,33.87,2,2,1.54,3-.2,4.71q-17.6,17-35,34.08c-1.87,1.84-2.9,1.34-4.36-.28C69.64,106,58.29,94.76,47,83.53c-1.64-1.62-1.31-2.56.14-4Q64.44,62.3,81.71,45C82.28,44.41,83,44,83.71,43.34Z"/></g></g></svg>